<svg width="18" height="13" viewBox="0 0 18 13" fill="none" xmlns="http://www.w3.org/2000/svg">
<path opacity="0.7" d="M6.45455 6.56875L8.28049 8.25884C8.67941 8.60115 9.32059 8.60113 9.71951 8.25884L11.6182 6.56875M6.45455 6.56875L1.29268 1.26324M6.45455 6.56875L1.22018 11.6621M11.6182 6.56875L16.7411 1.29603M11.6182 6.56875L16.7426 11.7025M1.29268 1.26324C1.46892 1.10059 1.71023 1 1.97561 1H16.0244C16.3072 1 16.5626 1.11422 16.7411 1.29603M1.29268 1.26324C1.24367 1.30847 1.19969 1.3585 1.16163 1.4125C1.05955 1.55732 1 1.73071 1 1.91667V11.0833C1 11.2718 1.06113 11.4473 1.1657 11.5932C1.18273 11.617 1.20092 11.64 1.22018 11.6621M1.22018 11.6621C1.24289 11.6882 1.2671 11.7132 1.29268 11.7368C1.46892 11.8994 1.71023 12 1.97561 12H16.0244C16.2898 12 16.5311 11.8994 16.7073 11.7368C16.7194 11.7256 16.7312 11.7142 16.7426 11.7025M16.7411 1.29603C16.7767 1.33229 16.8093 1.37123 16.8384 1.4125C16.9405 1.55732 17 1.73071 17 1.91667V11.0833C17 11.2718 16.9389 11.4473 16.8343 11.5932C16.8067 11.6318 16.776 11.6683 16.7426 11.7025" stroke="#3D3E3E"/>
</svg>
