<svg width="15" height="18" viewBox="0 0 15 18" fill="none" xmlns="http://www.w3.org/2000/svg">
<g opacity="0.7">
<path d="M14 7.54545C14 12.6364 7.5 17 7.5 17C7.5 17 1 12.6364 1 7.54545C1 5.80949 1.68482 4.14463 2.90381 2.91712C4.12279 1.68961 5.77609 1 7.5 1C9.22391 1 10.8772 1.68961 12.0962 2.91712C13.3152 4.14463 14 5.80949 14 7.54545Z" stroke="#3D3E3E" stroke-linecap="round" stroke-linejoin="round"/>
<path d="M7.50016 9.72735C8.69678 9.72735 9.66683 8.75051 9.66683 7.54553C9.66683 6.34054 8.69678 5.36371 7.50016 5.36371C6.30355 5.36371 5.3335 6.34054 5.3335 7.54553C5.3335 8.75051 6.30355 9.72735 7.50016 9.72735Z" stroke="#3D3E3E" stroke-linecap="round" stroke-linejoin="round"/>
</g>
</svg>
