<svg width="295" height="90" viewBox="0 0 295 90" fill="none" xmlns="http://www.w3.org/2000/svg">
<path d="M119.701 24.7938C119.374 20.5183 118.958 15.6192 111.585 8.34486C104.748 1.57525 97.1668 1.21895 92.2616 0.387593C82.2429 -0.206232 63.6028 -3.08629 45.9735 23.3983C38.3629 34.7998 31.9414 51.1894 33.1009 63.2737C33.1901 64.3129 33.0117 64.4317 31.3469 66.1538C-3.37661 102.288 8.30688 58.0778 7.68257 54.2773C7.2961 51.8426 2.09352 54.0397 1.26111 57.959C-4.03065 82.6325 7.44474 101.724 33.5468 68.9151C33.9927 68.3509 33.9333 68.44 34.1414 69.0932C37.4116 78.921 45.6762 89.3724 55.6057 89.9068C66.7541 90.5006 77.3971 88.3035 86.5833 81.9496C105.253 69.0635 121.515 48.6062 119.701 24.7938ZM108.196 29.5741C107.067 59.6217 81.5294 79.693 61.1353 80.079C52.1572 80.2275 39.1953 70.845 45.5276 48.339C50.8491 29.4851 69.4297 7.1869 82.1537 7.95887C87.9509 6.44462 108.375 11.4624 108.285 24.5563C108.285 26.2487 108.256 27.9114 108.196 29.5741Z" fill="black"/>
<path d="M12.4095 38.8675C11.5176 39.9067 10.3284 40.2036 9.28791 40.1145C7.83119 40.0849 6.67176 39.9067 5.57179 39.5207C4.62046 39.1644 4.3529 38.6894 4.53127 37.7392C5.0664 34.9482 6.76095 33.0777 9.28791 32.0385C10.5068 31.5337 11.8743 31.9197 13.0338 32.6026C13.4797 32.8699 13.7175 33.3449 13.777 33.8794C14.0445 35.7202 13.6283 37.4423 12.4095 38.8675Z" fill="black"/>
<path d="M191.947 67.2933C191.59 63.9085 185.585 75.7553 176.815 77.3883C173.396 78.0118 171.434 75.3099 171.315 72.3111C171.167 66.9667 174.318 64.7101 171.702 60.6721C170.632 59.0094 167.659 58.9797 165.726 59.2172C161.98 59.6923 156.986 64.0866 154.637 67.5308C153.954 62.5427 143.013 80.5949 129.041 82.0795C126.038 82.4061 123.452 79.7933 123.689 76.9726C124.017 72.608 126.692 64.2648 130.795 62.8099C131.627 62.513 131.627 62.7208 132.876 66.1947C134.957 71.8954 139.535 64.9773 132.905 58.6531C129.665 55.5652 117.506 70.2921 120.122 80.1496C122.025 87.5427 130.854 87.0083 137.305 83.1484C147.265 77.1805 154.191 67.8574 152.556 70.975C147.146 81.2482 151.189 90.8978 162.218 82.317C167.391 78.279 167.748 76.1116 168.224 77.3586C170.186 82.3467 175.626 82.8515 180.204 80.2684C184.337 77.9524 187.666 74.6567 190.758 71.1531C191.709 70.1139 192.066 68.7185 191.947 67.2933ZM168.432 65.7196C168.402 78.4869 151.754 86.4441 154.221 77.418C155.975 71.0344 161.029 62.602 167.242 62.899C168.432 62.988 168.432 64.532 168.432 65.7196Z" fill="black"/>
<path d="M262.702 62.6021C262.435 66.2838 252.297 66.8776 244.776 67.6496C244.092 67.709 243.765 68.0652 243.616 68.7778C242.1 75.6959 238.86 84.3064 241.951 86.6223C243.17 87.5427 243.081 88.4335 241.714 89.1757C239.395 90.4525 237.581 89.7696 236.63 87.2755C234.727 82.2874 240.584 69.431 238.562 68.6888C237.908 68.4809 237.284 68.5403 236.66 68.6888C236.243 68.6294 236.006 68.8372 235.827 69.1935C232.825 74.4489 224.679 82.5249 218.733 82.6437C209.309 82.8218 213.501 66.937 208.744 67.1151C203.958 67.2933 193.136 91.462 191.561 78.7541C191.174 75.6068 192.096 67.2933 194.028 62.4536C194.89 60.3455 195.604 60.3752 196.377 60.2268C199.35 60.3752 197.15 65.4821 196.08 70.2624C193.761 80.684 198.577 71.6876 203.928 65.779C209.041 60.1674 213.56 61.6222 214.69 65.9572C216.266 71.836 214.779 78.8729 220.428 78.1603C224.144 77.6852 229.138 72.8455 231.725 70.1139C233.36 68.3918 232.617 69.0748 231.13 68.5403C230.06 67.709 229.584 65.6603 230.773 65.2149C231.873 64.7992 232.825 65.2149 238.176 64.5023C239.514 64.6507 240.019 64.3241 240.287 63.1068C243.319 54.2291 242.189 46.6578 246.381 47.1923C246.797 47.1329 247.124 47.2517 247.213 47.7267C249.443 51.0522 241.892 63.4928 245.727 63.5522C258.124 63.8788 262.881 59.9595 262.702 62.6021Z" fill="black"/>
<path d="M294.304 63.1365C286.783 66.1947 281.431 63.9975 281.372 63.9975C278.696 63.3443 276.199 62.7505 274.594 60.3455C273.91 59.336 272.186 58.2374 270.164 58.6828C265.675 59.6329 262.078 64.532 259.789 67.7386C245.757 87.3052 270.937 91.551 278.102 73.8253C280.064 68.956 278.013 66.6104 278.221 66.3728C278.34 66.2244 278.518 66.4322 278.607 66.5807C284.196 69.5795 294.453 68.9263 294.988 63.7006C295.047 62.988 294.899 62.899 294.304 63.1365ZM274.059 74.152C268.767 82.5843 260.086 82.5843 260.146 77.9227C260.175 75.1021 261.037 72.5783 262.702 70.2921C263.743 68.5403 267.191 64.3241 267.34 64.3241C267.37 64.3241 268.648 62.6021 269.778 63.3443C271.205 63.8788 270.134 63.7897 272.602 64.6804C274.951 64.2945 276.318 70.5296 274.059 74.152Z" fill="black"/>
</svg>
