<svg width="18" height="18" viewBox="0 0 18 18" fill="none" xmlns="http://www.w3.org/2000/svg">
<path opacity="0.7" d="M7.30895 10.6526C7.30895 10.6526 5.70608 8.97835 5.61899 7.57395C5.60273 7.02531 5.95574 6.67272 6.14154 6.51735C6.25069 6.43844 6.89749 5.98713 7.01245 5.73968C7.10603 5.57531 7.15888 5.39078 7.16656 5.20163C7.17424 5.01247 7.13651 4.82423 7.05656 4.65277C6.83709 4.05262 5.95573 2.79379 5.89883 2.74717C5.87445 2.71465 4.63482 1.11048 4.08735 1.03458C3.79387 0.975289 3.30467 0.943899 2.59053 1.36094C2.24531 1.52327 1.93664 1.75445 1.6833 2.04038C1.42996 2.32631 1.23727 2.66102 1.11695 3.02411C1.0856 3.07131 0.87309 3.66996 1.1123 4.69753C1.34561 5.34535 1.61544 5.97932 1.9205 6.59638C3.43473 9.81815 5.84426 12.1562 5.84426 12.1562C5.84426 12.1562 8.1818 14.5642 11.4007 16.0787C12.0173 16.3844 12.6508 16.6543 13.2981 16.8873C14.3246 17.127 14.9227 16.9147 14.9703 16.883C15.3324 16.7634 15.6665 16.571 15.9522 16.3176C16.2379 16.0642 16.4692 15.7551 16.632 15.4091C17.0489 14.6946 17.0337 14.0644 16.9583 13.9118C16.9583 13.3667 15.3093 12.1454 15.2479 12.0999L15.2466 12.099C15.2002 12.042 13.9426 11.1602 13.3434 10.9408C13.1717 10.8611 12.9837 10.8235 12.7947 10.8311C12.6057 10.8388 12.4212 10.8914 12.2565 10.9847C12.0103 11.1005 11.5586 11.7467 11.4796 11.857C11.3552 12.0193 11.1954 12.1508 11.0124 12.2416C10.8294 12.3323 10.6282 12.3798 10.4241 12.3803C9.02134 12.2931 7.30895 10.6526 7.30895 10.6526ZM7.30895 10.6526L7.30824 10.6531M9.04377 1.0792C14.2046 1.0792 16.8504 3.838 16.8504 8.90009" stroke="#3D3E3E"/>
</svg>
