<svg width="100" height="90" viewBox="0 0 100 90" fill="none" xmlns="http://www.w3.org/2000/svg">
<path opacity="0.1" d="M30.5132 74.7159C3.88095 62.7739 8.54568e-05 53.8851 0 29.8195C0 5.75383 24.9771 3.2967 62.6999 5.75389C85.7457 7.25501 91.5393 14.1638 96.4316 30.8546C101.931 49.6152 101.364 58.284 92.698 67.988C73.294 89.7158 58.3069 89.1209 30.5132 74.7159Z" fill="black"/>
<g opacity="0.8">
<path d="M50.8787 59.9275H39.3071M72.526 23.3307V6.87973C72.526 6.35189 72.086 6 71.646 6H6.87997C6.35199 6 6 6.43987 6 6.87973V59.0478C6 59.5756 6.43999 59.9275 6.87997 59.9275H20.7396M15.2397 6V41.4532C15.2397 41.981 15.6797 42.3329 16.1197 42.3329H20.7396M26.2394 6V41.4532C26.2394 41.893 25.8874 42.3329 25.3594 42.3329H20.7396M33.8073 6V41.4532C33.8073 41.981 34.2472 42.3329 34.6872 42.3329H39.3071M44.8069 6V41.4532C44.8069 41.893 44.3669 42.3329 43.927 42.3329H39.3071M52.2867 6V41.4532C52.2867 41.981 52.7267 42.3329 53.1667 42.3329H62.4064C62.9344 42.3329 63.2864 41.893 63.2864 41.4532V6M81.7659 50.9544C81.7659 49.8108 81.8539 48.7551 81.8539 47.8754C81.9102 46.2711 81.9575 45.0089 81.941 43.9968M87.7497 54.4733C87.7497 53.3297 87.8377 52.274 87.8377 51.3943C87.8763 50.2955 87.9106 49.3573 87.9231 48.5499M85.3738 84.824C85.3738 79.0178 87.4857 75.235 90.0377 70.7484C90.4776 70.0446 90.8296 69.3408 91.2696 68.549C93.6456 64.2383 93.8215 59.1359 93.8215 58.96C93.8215 57.8163 93.9095 56.7606 93.9095 55.8809C94.0855 50.8664 94.1735 49.195 92.5016 48.0513C90.7775 46.9221 89.1338 47.6399 87.9231 48.5499M62.9345 85V77.7862C62.9345 67.4054 60.2945 64.2383 56.5987 59.7517L55.9827 59.0479C55.8067 58.872 52.9908 54.9132 53.3427 50.2506C53.5187 48.1393 55.1027 46.5558 57.2146 46.3798C59.3266 46.2039 61.0865 47.5235 61.5265 49.6348C61.6145 49.9867 61.7025 50.4266 61.7025 50.8664C61.8785 52.5379 62.7585 53.8575 64.1664 54.5613C64.9584 54.9132 65.8384 54.9132 66.5424 54.4733C67.2463 54.0335 67.6863 53.2417 67.6863 52.45V30.8086C67.6863 28.6093 69.4463 26.8498 71.6462 26.8498C73.8461 26.8498 75.6061 28.6093 75.6061 30.8086V40.7488M75.6061 48.8431V40.7488M20.7396 42.3329V59.9275M20.7396 59.9275H39.3071M39.3071 42.3329V59.9275M75.6061 40.7488C76.8354 39.7506 78.5943 38.833 80.4459 40.0458C81.583 40.8235 81.906 41.8454 81.941 43.9968M81.941 43.9968C83.1425 43.1192 84.7479 42.4631 86.4298 43.5647C87.7354 44.4577 87.9678 45.6727 87.9231 48.5499" stroke="white"/>
</g>
</svg>
