<svg width="100" height="90" viewBox="0 0 100 90" fill="none" xmlns="http://www.w3.org/2000/svg">
<path opacity="0.1" d="M30.5132 74.7159C3.88095 62.7739 8.54568e-05 53.8851 0 29.8195C0 5.75383 24.9771 3.2967 62.6999 5.75389C85.7457 7.25501 91.5393 14.1638 96.4316 30.8546C101.931 49.6152 101.364 58.284 92.698 67.988C73.294 89.7158 58.3069 89.1209 30.5132 74.7159Z" fill="black"/>
<g opacity="0.8">
<path d="M68.0412 19.8691L65.7157 17.5427C65.4643 17.2598 65.3072 16.8511 65.3072 16.4739C65.3386 16.0966 65.5272 15.7822 65.81 15.4993L69.3356 12.7206M68.0412 19.8691L57.4509 30.4635C45.8865 24.176 25.8372 28.0428 14.0214 39.8633C7.86206 45.9936 5.15949 53.1928 6.22795 60.6749C7.32783 68.6286 12.2301 74.9789 16.1269 78.8772C21.9091 84.6302 29.514 89 37.5588 89C43.4039 89 49.4375 86.7365 55.1569 81.0149C66.9727 69.2259 70.838 49.1374 64.553 37.5684L75.1432 26.9425M68.0412 19.8691L69.9035 21.7239L71.5905 23.4041M75.1432 26.9425L77.4687 29.2689C77.6887 29.5204 78.0658 29.6776 78.4115 29.6776C78.4115 29.6776 78.4743 29.6776 78.5057 29.6776C78.8828 29.6462 79.2285 29.4261 79.4799 29.1746M75.1432 26.9425L73.2411 25.0481L71.5905 23.4041M79.4799 29.1746L81.4911 26.6282M79.4799 29.1746L82.2982 25.6021M52.1715 42.8184C50.7574 41.4037 48.9347 40.6492 46.9549 40.6492C44.9751 40.6492 43.1525 41.4037 41.7383 42.8184C40.3556 44.2017 39.57 46.0565 39.57 48.037C39.57 49.9862 40.3556 51.841 41.7383 53.2242C43.121 54.6075 44.9751 55.3934 46.9549 55.3934C48.9347 55.3934 50.7574 54.6075 52.1715 53.2242C53.5542 51.841 54.3398 49.9862 54.3398 48.037C54.3398 46.0879 53.5856 44.2017 52.1715 42.8184ZM52.1715 42.8184L71.5905 23.4041M80.0635 4.26561L83.8794 1.25816C84.4137 0.880912 85.1679 0.91235 85.6392 1.38391L93.6212 9.33758C94.0926 9.80914 94.124 10.6265 93.7155 11.1295L90.6584 15.0047M80.0635 4.26561L77.2464 1.44919M80.0635 4.26561L74.6365 8.54287M74.6365 8.54287L71.8139 5.72103M74.6365 8.54287L69.3356 12.7206M69.3356 12.7206L66.5112 9.8969M82.2982 25.6021L85.1389 28.4422M82.2982 25.6021L86.4483 20.3414M86.4483 20.3414L89.293 23.1855M86.4483 20.3414L90.6584 15.0047M90.6584 15.0047L93.5192 17.8648M25.8372 53.9787C24.0774 52.1868 21.0292 52.1868 19.2379 53.9787C17.3839 55.8021 17.3839 58.7572 19.2379 60.5806L34.4163 75.7963C35.3276 76.708 36.5218 77.1481 37.6845 77.1481C38.8786 77.1481 40.1042 76.708 41.047 75.7648C42.8696 73.9415 42.8696 71.0178 41.047 69.1944L25.8372 53.9787Z" stroke="white"/>
</g>
</svg>
