<svg width="100" height="90" viewBox="0 0 100 90" fill="none" xmlns="http://www.w3.org/2000/svg">
<path opacity="0.1" d="M30.5132 74.7159C3.88095 62.7739 8.54568e-05 53.8851 0 29.8195C0 5.75383 24.9771 3.2967 62.6999 5.75389C85.7457 7.25501 91.5393 14.1638 96.4316 30.8546C101.931 49.6152 101.364 58.284 92.698 67.988C73.294 89.7158 58.3069 89.1209 30.5132 74.7159Z" fill="black"/>
<g opacity="0.8">
<path d="M6 83V60.7627C6 53.9265 11.5876 48.3645 18.4553 48.3645C25.323 48.3645 30.9107 53.9265 30.9107 60.7627V83M38.4812 83V60.7627C38.4812 53.9265 44.0689 48.3645 50.9366 48.3645C57.8043 48.3645 63.3913 53.9265 63.3913 60.7627V83M69.09 83V60.7627C69.09 53.9265 74.6775 48.3645 81.5452 48.3645C88.4129 48.3645 94 53.9265 94 60.7627V83M88.3296 37.0121C88.3296 40.4755 85.4989 43.2937 82.0201 43.2937C78.5407 43.2937 75.71 40.4755 75.71 37.0121C75.71 33.5487 78.5407 30.7315 82.0201 30.7315C83.5802 30.7315 85.0071 31.3012 86.1097 32.2385C87.3493 33.2924 88.3296 34.848 88.3296 37.0121ZM88.3296 37.0121V12.7432M32.7316 31.7405C34.0307 27.9383 35.1569 23.6225 33.661 20.4342C32.8752 18.7575 31.5833 17.3862 30.4234 16.2651C28.7075 14.6069 26.8016 13.1081 24.7577 11.8113C24.4169 11.5955 23.9844 11.5804 23.6273 11.7735C23.2723 11.9677 23.0512 12.3388 23.0512 12.7424V37.2061M68.5622 32.3747C68.5622 35.8382 65.7315 38.6553 62.2521 38.6553C58.7733 38.6553 55.9426 35.8382 55.9426 32.3747C55.9426 28.9112 58.7733 26.0941 62.2521 26.0941C63.8126 26.0941 65.2397 26.6639 66.3423 27.6011C67.4449 28.5384 68.5622 30.2123 68.5622 32.3747ZM68.5622 32.3747V8.10484C68.5622 7.4942 68.0652 7 67.4523 7C67.4133 7 67.3805 7.01812 67.3426 7.02199C67.2536 7.02033 67.1656 7.00862 67.075 7.02917L47.1385 11.6675C47.107 11.6748 47.084 11.6962 47.0538 11.7061C46.9797 11.7302 46.9139 11.762 46.8476 11.8C46.787 11.8345 46.7304 11.869 46.6782 11.9136C46.6238 11.9598 46.5794 12.0113 46.5348 12.0673C46.4904 12.1232 46.4501 12.1776 46.4173 12.2408C46.3854 12.3017 46.3644 12.3647 46.3444 12.4315C46.3224 12.504 46.3064 12.5749 46.2997 12.6517C46.297 12.6833 46.2812 12.7106 46.2812 12.7432V32.2385V37.1098M23.0512 37.2061C23.0513 37.1929 23.0513 37.1796 23.0513 37.1663C23.0513 33.813 20.3093 31.0837 16.94 31.0837C13.5706 31.0837 10.8294 33.813 10.8294 37.1663C10.8294 40.521 13.5706 43.2503 16.94 43.2503C20.296 43.2503 23.0296 40.5426 23.0512 37.2061ZM46.2812 37.1098C46.2813 37.0991 46.2813 37.0883 46.2813 37.0775C46.2813 33.7211 43.5376 30.9893 40.1651 30.9893C36.7924 30.9893 34.048 33.7211 34.048 37.0775C34.048 40.4354 36.7924 43.1672 40.1651 43.1672C43.5267 43.1672 46.2637 40.4529 46.2812 37.1098Z" stroke="white"/>
</g>
</svg>
