<svg width="100" height="90" viewBox="0 0 100 90" fill="none" xmlns="http://www.w3.org/2000/svg">
<path opacity="0.1" d="M30.5132 74.7159C3.88095 62.7739 8.54568e-05 53.8851 0 29.8195C0 5.75383 24.9771 3.2967 62.6999 5.75389C85.7457 7.25501 91.5393 14.1638 96.4316 30.8546C101.931 49.6152 101.364 58.284 92.698 67.988C73.294 89.7158 58.3069 89.1209 30.5132 74.7159Z" fill="black"/>
<g opacity="0.8">
<path d="M44.6667 68.051C44.6667 73.5457 40.1895 78 34.6667 78C29.1438 78 24.6667 73.5457 24.6667 68.051C24.6667 62.5563 29.1438 58.102 34.6667 58.102C40.1895 58.102 44.6667 62.5563 44.6667 68.051ZM44.6667 68.051V36.8776M75.3333 44.1735C75.3333 49.6681 70.8562 54.1224 65.3333 54.1224C59.8105 54.1224 55.3333 49.6681 55.3333 44.1735C55.3333 38.6788 59.8105 34.2245 65.3333 34.2245C70.8562 34.2245 75.3333 38.6788 75.3333 44.1735ZM75.3333 44.1735V13M6 20.9592H64M84 20.9592H94M84 44.1735H94M35.3333 44.1735H6M16.6667 68.051H6M54 68.051H94" stroke="white"/>
</g>
</svg>
