<svg width="100" height="90" viewBox="0 0 100 90" fill="none" xmlns="http://www.w3.org/2000/svg">
<path opacity="0.1" d="M30.5132 74.7159C3.88095 62.7739 8.54568e-05 53.8851 0 29.8195C0 5.75383 24.9771 3.2967 62.6999 5.75389C85.7457 7.25501 91.5393 14.1638 96.4316 30.8546C101.931 49.6152 101.364 58.284 92.698 67.988C73.294 89.7158 58.3069 89.1209 30.5132 74.7159Z" fill="black"/>
<g opacity="0.8">
<path d="M88.3376 43.7357C88.3376 53.3816 71.1733 61.2012 50 61.2012C28.8267 61.2012 11.6624 53.3816 11.6624 43.7357M88.3376 43.7357C88.3376 34.0898 71.1733 26.2702 50 26.2702C28.8267 26.2702 11.6624 34.0898 11.6624 43.7357M88.3376 43.7357V71.4137C88.3376 80.0216 71.1725 87 50 87C28.8253 87 11.6624 80.0227 11.6624 71.4137V43.7357M6.5 4.5L44.8398 42.9289M93.5 4.5L55.1602 42.9289M25.0995 57.5744V83.0592M74.8994 57.5744V83.0592M50.5698 61.2021V86.687" stroke="white" stroke-miterlimit="10"/>
</g>
</svg>
