<svg width="100" height="90" viewBox="0 0 100 90" fill="none" xmlns="http://www.w3.org/2000/svg">
<path opacity="0.1" d="M30.5132 74.7159C3.88095 62.7739 8.54568e-05 53.8851 0 29.8195C0 5.75383 24.9771 3.2967 62.6999 5.75389C85.7457 7.25501 91.5393 14.1638 96.4316 30.8546C101.931 49.6152 101.364 58.284 92.698 67.988C73.294 89.7158 58.3069 89.1209 30.5132 74.7159Z" fill="black"/>
<g opacity="0.8">
<path d="M91.9328 19.3253L88.7853 16.1359M87.8003 15.1378L88.7853 16.1359M80.9955 8.24248L79.6099 6.83848M76.9732 4.16662L79.6099 6.83848M73.7085 11.7601L72.3279 10.361M69.7138 7.71211L72.3279 10.361M86.5468 24.811L83.3855 21.6076M82.4143 20.6235L83.3855 21.6076M35.8963 48.3867L45.5388 58.1576M74.8105 22.103L71.1188 18.3761M55.4971 30.2969L42.1501 43.8084C41.7277 44.2557 41.491 44.8503 41.4889 45.4694C41.4943 46.1083 41.7465 46.7197 42.1914 47.1724L46.4066 51.3599C46.8497 51.8061 47.4487 52.0569 48.0733 52.0578C48.7055 52.0539 49.3121 51.804 49.7677 51.3599L63.0634 37.9269M55.4971 30.2969C54.9423 29.7523 54.239 29.3881 53.4774 29.2518C52.6964 29.112 51.8919 29.2186 51.1727 29.5573L10.4127 48.6943C9.33048 49.2039 8.38575 49.9708 7.6588 50.9298C6.93185 51.8888 6.44418 53.0114 6.23726 54.2023C6.03034 55.3932 6.11029 56.6172 6.4703 57.7701C6.83032 58.923 7.45976 59.9707 8.3051 60.8242C9.13059 61.6402 10.1299 62.2533 11.2261 62.6163C12.3223 62.9793 13.4861 63.0825 14.6278 62.918L28.4303 60.908C29.0066 60.8232 29.5946 60.8762 30.1471 61.0628C30.6996 61.2494 31.2014 61.5645 31.6123 61.9828C32.0294 62.393 32.3434 62.8986 32.528 63.4572C32.7125 64.0158 32.7623 64.6111 32.673 65.1932L30.648 79.1516C30.496 80.2188 30.5722 81.3067 30.8713 82.3415C31.1705 83.3763 31.6856 84.3339 32.3819 85.1493C33.0782 85.9647 33.9393 86.6189 34.9069 87.0676C35.8745 87.5163 36.926 87.7491 37.9901 87.75C38.4201 87.7388 38.8486 87.6921 39.2711 87.6104C40.4398 87.4017 41.5423 86.9127 42.4864 86.1842C43.4306 85.4558 44.1891 84.509 44.6985 83.4229L63.7217 42.2176C64.0528 41.4905 64.1564 40.6781 64.0185 39.8896C63.8901 39.1557 63.5583 38.4752 63.0634 37.9269M55.4971 30.2969L69.2104 16.4146M63.0634 37.9269L76.7719 24.0768M69.2104 16.4146L68.7495 15.9476C68.4679 15.6446 68.2601 15.279 68.1429 14.8801C68.0257 14.4811 68.0024 14.0599 68.0747 13.6502C68.147 13.2404 68.3129 12.8535 68.5593 12.5205C68.8057 12.1874 69.1256 11.9174 69.4934 11.7321L72.3279 10.361M69.2104 16.4146L76.7719 24.0768M76.7719 24.0768L77.0145 24.3226C77.2582 24.5709 77.548 24.7677 77.8672 24.9019C78.1863 25.0361 78.5286 25.1048 78.8741 25.1043C79.2152 25.1027 79.5527 25.0328 79.8671 24.8987C80.1815 24.7645 80.4667 24.5688 80.7062 24.3226L83.3855 21.6076M83.3855 21.6076L88.7853 16.1359M72.3279 10.361L79.6099 6.83848M79.6099 6.83848L86.2299 3.63623C86.7173 3.39839 87.2658 3.32032 87.799 3.41288C88.3323 3.50543 88.8238 3.76402 89.2053 4.15269L93.0761 8.04709C93.5561 8.53573 93.8407 9.18707 93.875 9.87565C93.8731 10.5823 93.5958 11.2595 93.1036 11.76L88.7853 16.1359M42.8114 63.3083C43.0838 63.3083 43.3501 63.3902 43.5766 63.5435C43.8032 63.6969 43.9797 63.9149 44.084 64.17C44.1882 64.425 44.2155 64.7057 44.1624 64.9765C44.1092 65.2472 43.978 65.4959 43.7854 65.6912C43.5927 65.8864 43.3473 66.0193 43.0801 66.0732C42.8129 66.127 42.5359 66.0994 42.2842 65.9937C42.0325 65.8881 41.8174 65.7092 41.666 65.4796C41.5146 65.2501 41.4339 64.9802 41.4339 64.7041C41.4339 64.3339 41.579 63.9789 41.8373 63.7171C42.0956 63.4554 42.446 63.3083 42.8114 63.3083Z" stroke="white"/>
</g>
</svg>
