<svg width="100" height="90" viewBox="0 0 100 90" fill="none" xmlns="http://www.w3.org/2000/svg">
<path opacity="0.15" d="M30.5132 74.7159C3.88095 62.7739 8.54568e-05 53.8851 0 29.8195C0 5.75383 24.9771 3.2967 62.6999 5.75389C85.7457 7.25501 91.5393 14.1638 96.4316 30.8546C101.931 49.6152 101.364 58.284 92.698 67.988C73.294 89.7158 58.3069 89.1209 30.5132 74.7159Z" fill="black"/>
<path d="M26.375 45V54.0776C26.375 66.9072 35.9459 77.4221 47.9961 78.2088C48.5594 78.2575 48.9984 78.2857 49.4375 78.2876M72.5 45V54.0776C72.5 66.9224 62.9291 77.4221 50.8789 78.2088C50.3156 78.2652 49.8766 78.2895 49.4375 78.2876M40.7891 88.875H49.4375M49.4375 88.875H58.0859M49.4375 88.875V78.2876M33.582 35.9224V54.0776C33.582 63.2611 40.6882 70.7198 49.4375 70.7198C58.1868 70.7198 65.293 63.2611 65.293 54.0776V35.9224M33.582 35.9224H65.293M33.582 35.9224V31.3836M65.293 35.9224V31.3836M33.582 25.3319H39.3477M33.582 25.3319V31.3836M33.582 25.3319V19.2802M65.293 25.3319H59.5273M65.293 25.3319V31.3836M65.293 25.3319V19.2802M33.582 31.3836H39.3477M65.293 31.3836H59.5273M33.582 19.2802V17.7672C33.582 8.58375 40.6882 1.125 49.4375 1.125C58.1868 1.125 65.293 8.58375 65.293 17.7672V19.2802M33.582 19.2802H39.3477M65.293 19.2802H59.5273M37.9062 41.9741H42.2305M46.5547 41.9741H50.8789M55.2031 41.9741H59.5273" stroke="white"/>
</svg>
