<svg width="100" height="90" viewBox="0 0 100 90" fill="none" xmlns="http://www.w3.org/2000/svg">
<path opacity="0.1" d="M30.5132 74.7159C3.88095 62.7739 8.54568e-05 53.8851 0 29.8195C0 5.75383 24.9771 3.2967 62.6999 5.75389C85.7457 7.25501 91.5393 14.1638 96.4316 30.8546C101.931 49.6152 101.364 58.284 92.698 67.988C73.294 89.7158 58.3069 89.1209 30.5132 74.7159Z" fill="black"/>
<g opacity="0.8">
<path d="M33.8589 70.1757L25.3436 61.5676M31.5156 72.5199L23.0003 63.9118M91.83 11.6527L92.8649 10.6066C93.7117 9.75062 93.7117 8.324 92.8649 7.46802L87.5963 2.14198C86.7496 1.28601 85.3383 1.28601 84.4916 2.14198L83.612 3.40885M91.83 11.6527L92.4886 12.3184L92.6768 12.6989M91.83 11.6527L91.5478 11.2722L90.0425 9.75052M91.83 11.6527L86.8433 16.8833L85.2443 18.4053C84.3975 19.2613 82.9863 19.2613 82.1395 18.4053L56.7797 44.0416M83.612 3.40885L83.9271 3.66371L85.3384 5.09033M83.612 3.40885L83.4567 3.28327L82.4218 2.23709M83.612 3.40885L78.3909 8.52907L76.8709 9.94092C76.0242 10.7969 76.0242 12.2235 76.8709 13.0795L51.4746 38.7526M87.6904 17.9298L87.4081 17.4543L86.7496 16.7885L86.3732 16.5032L84.8679 14.9815M80.0697 10.3213L78.9407 9.18L78.6585 8.79957L77.2473 7.37295M79.6934 4.92834L81.1046 6.35496L81.3868 6.73539L82.5158 7.87669M87.4081 12.4418L88.5371 13.5831L88.8194 13.9635L90.2306 15.3901M46.7289 43.55L51.4746 38.7526M52.438 48.4306L56.7797 44.0416M51.4746 38.7526L50.716 37.9977L48.9284 36.1906C45.8237 33.0521 40.6491 33.0521 37.5444 36.1906C36.7918 36.9515 36.1332 37.9026 35.7568 38.9488C33.9693 43.609 30.0178 47.0329 25.3137 48.2693L17.693 50.2666C10.825 52.0737 6.68535 59.1116 8.37884 66.0545C8.94333 68.3371 10.0723 70.4295 11.7658 72.0463L24.2788 84.6957C26.6308 87.1685 29.9237 88.5 33.3107 88.5C34.4397 88.5 35.6628 88.3098 36.7918 88.0245C41.3077 86.7881 44.6947 83.2691 45.8237 78.7039L47.7994 70.905C49.0225 66.1496 52.5035 62.1551 57.0195 60.3481C61.1591 58.6361 63.1349 53.9758 61.5355 49.7911C61.1591 48.7449 60.5005 47.8889 59.7479 47.0329L57.3958 44.6552L56.7797 44.0416M50.0254 53.7C50.0254 57.7041 46.7814 60.95 42.7797 60.95C38.7779 60.95 35.5339 57.7041 35.5339 53.7C35.5339 49.6959 38.7779 46.45 42.7797 46.45C46.7814 46.45 50.0254 49.6959 50.0254 53.7ZM47.1271 53.7C47.1271 56.1024 45.1807 58.05 42.7797 58.05C40.3786 58.05 38.4322 56.1024 38.4322 53.7C38.4322 51.2976 40.3786 49.35 42.7797 49.35C45.1807 49.35 47.1271 51.2976 47.1271 53.7Z" stroke="white"/>
</g>
</svg>
