<svg width="100" height="90" viewBox="0 0 100 90" fill="none" xmlns="http://www.w3.org/2000/svg">
<path opacity="0.1" d="M30.5132 74.7159C3.88095 62.7739 8.54568e-05 53.8851 0 29.8195C0 5.75383 24.9771 3.2967 62.6999 5.75389C85.7457 7.25501 91.5393 14.1638 96.4316 30.8546C101.931 49.6152 101.364 58.284 92.698 67.988C73.294 89.7158 58.3069 89.1209 30.5132 74.7159Z" fill="black"/>
<g opacity="0.8" clip-path="url(#clip0_234_251)">
<path d="M10.625 43.7986C25.0133 45.5653 34.6951 42.9831 45.4527 32.1443M45.4527 32.1443C42.442 29.9023 38.7216 28.5774 34.6951 28.5774C24.6692 28.5774 16.5417 36.7916 16.5417 46.9243C16.5417 55.3134 22.1127 62.3874 29.7197 64.5736M45.4527 32.1443C49.9383 35.4848 52.8485 40.8611 52.8485 46.9243C52.8485 57.057 44.7209 65.2712 34.6951 65.2712C32.9698 65.2712 31.3008 65.028 29.7197 64.5736M29.7197 64.5736V69.0765C20.9475 72.6936 17.9775 75.6852 16.5417 82.9386M22.1894 49.3706H27.0303M42.0909 49.3706H47.3352M55 20.6008V29.6646C55 35.8503 58.7861 41.1422 64.1439 43.3026M55 20.6008C62.5877 20.0394 65.5658 17.1384 69.6761 11.2658C73.7306 17.0586 76.6834 19.96 84.0455 20.5766M55 20.6008C54.3325 20.6502 53.6292 20.6814 52.8864 20.695C52.6328 16.3536 53.5766 14.1186 57.9963 10.6382M84.0455 20.5766V29.6646C84.0455 35.8503 80.2594 41.1422 74.9015 43.3026M84.0455 20.5766C84.8035 20.6401 85.6083 20.6793 86.4659 20.695C86.7195 16.3536 85.7757 14.1186 81.356 10.6382M59.4375 26.2671C60.8257 25.0033 61.8194 24.5688 64.1439 24.5003M74.767 24.5003C77.4262 24.5456 78.5678 24.8638 79.608 26.2671M68.9849 25.5875V31.4314C68.9849 33.0622 69.9261 33.8776 71.8087 33.8776M64.1439 43.3026C65.8074 43.9733 67.6225 44.3422 69.5227 44.3422C71.423 44.3422 73.238 43.9733 74.9015 43.3026M64.1439 43.3026V52.4963H60.3788C53.8434 52.4963 48.5455 58.2159 48.5455 65.2712V75.1922M74.9015 43.3026V52.4963H78.6667C85.202 52.4963 90.5 58.2159 90.5 65.2712M90.5 65.2712V89.1902M90.5 65.2712V18.7924C90.5 9.03496 82.6735 1.125 73.0189 1.125H66.0265C56.372 1.125 48.5455 9.03496 48.5455 18.7924V31.5673M78.5322 57.117C74.1505 57.117 70.5985 60.707 70.5985 65.1353C70.5985 67.3098 70.8701 68.4721 71.2708 70.4355L58.3617 79.4051L40.3428 77.2307C37.595 77.2307 35.3674 79.482 35.3674 82.2591C35.3674 84.7586 37.1719 86.8321 39.536 87.2217L48.142 88.6466C57.9583 90.4133 60.5133 91.0928 69.1193 86.608C77.053 82.2591 80.4068 78.9609 85.3902 72.61" stroke="white"/>
</g>
<defs>
<clipPath id="clip0_234_251">
<rect width="90" height="90" fill="white" transform="translate(5)"/>
</clipPath>
</defs>
</svg>
