<svg width="47" height="52" viewBox="0 0 47 52" fill="none" xmlns="http://www.w3.org/2000/svg">
<path d="M28.6769 39.4257C28.6769 45.818 22.4812 51 14.8385 51C7.19569 51 1 45.818 1 39.4257C1 33.0334 7.19569 27.8514 14.8385 27.8514C22.4812 27.8514 28.6769 33.0334 28.6769 39.4257Z" fill="#FEDA2F"/>
<path d="M28.6769 39.4257L28.6808 2.75012C28.6808 2.11033 29.019 1.52203 29.5619 1.21414C30.1083 0.907995 30.7697 0.931993 31.2911 1.27404C34.4174 3.32983 37.3328 5.70561 39.9574 8.33429C41.7316 10.1114 43.7078 12.2853 44.9098 14.9432C47.1979 19.9972 45.4752 26.8387 43.4881 32.866M28.6769 39.4257C28.6769 45.818 22.4812 51 14.8385 51C7.19569 51 1 45.818 1 39.4257C1 33.0334 7.19569 27.8514 14.8385 27.8514C22.4812 27.8514 28.6769 33.0334 28.6769 39.4257Z" stroke="black"/>
<path d="M14.8198 45.4421C16.8998 45.4421 18.5638 44.0661 18.5638 42.0661C18.5638 39.9861 16.8198 39.0421 14.8678 38.8821L18.3878 34.9781V34.0501H11.2358V35.1861H16.7078L13.1718 39.1701L13.4278 39.9221H14.1478C15.9878 39.9221 17.2838 40.6901 17.2838 42.0821C17.2838 43.4261 16.1958 44.2901 14.8358 44.2901C13.4598 44.2901 12.4198 43.6821 11.5558 42.6261L10.6438 43.4421C11.5558 44.6261 12.9478 45.4421 14.8198 45.4421Z" fill="black"/>
</svg>
