<svg width="47" height="52" viewBox="0 0 47 52" fill="none" xmlns="http://www.w3.org/2000/svg">
<path d="M28.6769 39.4257C28.6769 45.818 22.4812 51 14.8385 51C7.19569 51 1 45.818 1 39.4257C1 33.0334 7.19569 27.8514 14.8385 27.8514C22.4812 27.8514 28.6769 33.0334 28.6769 39.4257Z" fill="#FEDA2F"/>
<path d="M28.6769 39.4257L28.6808 2.75012C28.6808 2.11033 29.019 1.52203 29.5619 1.21414C30.1083 0.907995 30.7697 0.931993 31.2911 1.27404C34.4174 3.32983 37.3328 5.70561 39.9574 8.33429C41.7316 10.1114 43.7078 12.2853 44.9098 14.9432C47.1979 19.9972 45.4752 26.8387 43.4881 32.866M28.6769 39.4257C28.6769 45.818 22.4812 51 14.8385 51C7.19569 51 1 45.818 1 39.4257C1 33.0334 7.19569 27.8514 14.8385 27.8514C22.4812 27.8514 28.6769 33.0334 28.6769 39.4257Z" stroke="black"/>
<path d="M10.7289 45.2501H18.5529V44.0981H12.6169L15.6089 41.4421C17.5609 39.7141 18.4409 38.7221 18.4409 37.0901C18.4409 35.2341 16.9849 33.8901 14.9689 33.8901C13.0009 33.8901 11.9449 34.7701 10.9369 36.2741L11.8649 36.9461C12.7609 35.6981 13.5929 35.0261 14.8729 35.0261C16.0889 35.0261 17.1289 35.8581 17.1289 37.1701C17.1289 38.2901 16.5209 39.1701 14.7929 40.6901L10.7289 44.2741V45.2501Z" fill="black"/>
</svg>
