<svg width="45" height="33" viewBox="0 0 45 33" fill="none" xmlns="http://www.w3.org/2000/svg">
<path d="M18.5376 27.21C18.446 26.3394 16.9039 29.3864 14.6519 29.8064C13.774 29.9668 13.2702 29.2719 13.2396 28.5006C13.2015 27.126 14.0107 26.5456 13.3389 25.507C13.0641 25.0793 12.3007 25.0717 11.8045 25.1328C10.8426 25.255 9.56007 26.3852 8.95698 27.2711C8.7814 25.9881 5.97211 30.6312 2.38415 31.013C1.61312 31.097 0.948963 30.425 1.01003 29.6995C1.09401 28.5769 1.78106 26.431 2.83455 26.0568C3.0483 25.9805 3.0483 26.0339 3.36893 26.9274C3.9033 28.3936 5.07893 26.6143 3.37656 24.9877C2.54446 24.1935 -0.577829 27.9813 0.0939594 30.5166C0.582533 32.4182 2.84982 32.2807 4.50639 31.288C7.06376 29.753 8.84247 27.3551 8.42261 28.1569C7.03323 30.7992 8.07145 33.2811 10.9036 31.0741C12.232 30.0355 12.3236 29.4781 12.4457 29.7988C12.9495 31.0818 14.3466 31.2116 15.5222 30.5472C16.5833 29.9515 17.4383 29.1039 18.2322 28.2027C18.4765 27.9354 18.5681 27.5765 18.5376 27.21ZM12.4991 26.8052C12.4915 30.089 8.21649 32.1356 8.85011 29.8141C9.30051 28.1722 10.5983 26.0034 12.1938 26.0797C12.4991 26.1026 12.4991 26.4997 12.4991 26.8052Z" fill="#FEDA2F"/>
<path d="M30.7672 6.37705C30.6832 5.27737 30.5764 4.01731 28.6831 2.14632C26.9273 0.405158 24.9807 0.313518 23.7211 0.0996902C21.1484 -0.0530437 16.3619 -0.793802 11.835 6.01813C9.8807 8.95062 8.23177 13.1661 8.52949 16.2742C8.55239 16.5415 8.50659 16.572 8.07909 17.015C-0.837373 26.3088 2.16277 14.9378 2.00246 13.9603C1.90322 13.3341 0.567275 13.8992 0.353524 14.9072C-1.00532 21.2533 1.94139 26.1637 8.644 17.7252C8.75851 17.5801 8.74324 17.603 8.79668 17.771C9.63642 20.2987 11.7587 22.9869 14.3084 23.1243C17.1711 23.2771 19.9041 22.7119 22.263 21.0777C27.0571 17.7634 31.2329 12.5017 30.7672 6.37705ZM27.8129 7.60656C27.5228 15.3349 20.9652 20.4973 15.7283 20.5966C13.4229 20.6348 10.0945 18.2216 11.7205 12.433C13.087 7.58365 17.8582 1.84849 21.1255 2.04705C22.6141 1.65758 27.8587 2.94818 27.8358 6.31596C27.8358 6.75125 27.8281 7.17891 27.8129 7.60656Z" fill="#FEDA2F"/>
<path d="M36.7064 26.0034C36.6377 26.9503 34.0345 27.103 32.1031 27.3016C31.9276 27.3169 31.8436 27.4085 31.8054 27.5918C31.4161 29.3711 30.584 31.5858 31.3779 32.1814C31.6909 32.4182 31.668 32.6473 31.3168 32.8382C30.7214 33.1666 30.2557 32.9909 30.0114 32.3494C29.5229 31.0665 31.0268 27.7598 30.5076 27.5689C30.3397 27.5154 30.1794 27.5307 30.0191 27.5689C29.9122 27.5536 29.8511 27.6071 29.8053 27.6987C29.0343 29.0504 26.9426 31.1276 25.4158 31.1581C22.9958 31.2039 24.0722 27.1183 22.8508 27.1641C21.6217 27.21 18.843 33.4262 18.4384 30.1577C18.3391 29.3482 18.5758 27.21 19.072 25.9652C19.2934 25.423 19.4766 25.4306 19.6751 25.3924C20.4385 25.4306 19.8735 26.7441 19.5987 27.9736C19.0033 30.6541 20.24 28.3402 21.6141 26.8205C22.9271 25.3772 24.0875 25.7514 24.3776 26.8663C24.7822 28.3784 24.4005 30.1883 25.8509 30.005C26.8052 29.8828 28.0877 28.638 28.7518 27.9354C29.1717 27.4925 28.9809 27.6682 28.5992 27.5307C28.3243 27.3169 28.2022 26.7899 28.5076 26.6754C28.79 26.5685 29.0343 26.6754 30.4084 26.4921C30.7519 26.5303 30.8817 26.4463 30.9504 26.1332C31.7291 23.8498 31.439 21.9025 32.5154 22.0399C32.6223 22.0246 32.7062 22.0552 32.7291 22.1774C33.3017 23.0327 31.3627 26.2325 32.3474 26.2477C35.5308 26.3317 36.7522 25.3237 36.7064 26.0034Z" fill="#FEDA2F"/>
<path d="M44.8213 26.1408C42.8899 26.9274 41.5158 26.3623 41.5005 26.3623C40.8135 26.1943 40.1722 26.0415 39.76 25.423C39.5844 25.1633 39.1416 24.8808 38.6225 24.9953C37.4698 25.2397 36.5461 26.4997 35.9583 27.3245C32.3551 32.3571 38.821 33.4491 40.6608 28.89C41.1646 27.6376 40.6379 27.0343 40.6913 26.9732C40.7219 26.935 40.7677 26.9885 40.7906 27.0267C42.2258 27.798 44.8595 27.63 44.9969 26.2859C45.0122 26.1026 44.974 26.0797 44.8213 26.1408ZM39.6226 28.974C38.2637 31.1429 36.0346 31.1429 36.0499 29.9439C36.0575 29.2184 36.2789 28.5693 36.7064 27.9813C36.9736 27.5307 37.8591 26.4463 37.8973 26.4463C37.9049 26.4463 38.2332 26.0034 38.5233 26.1943C38.8897 26.3317 38.6149 26.3088 39.2485 26.5379C39.8516 26.4387 40.2028 28.0424 39.6226 28.974Z" fill="#FEDA2F"/>
<path d="M3.21625 9.99685C2.98723 10.2641 2.68187 10.3405 2.41469 10.3176C2.04062 10.31 1.7429 10.2641 1.46044 10.1649C1.21615 10.0732 1.14745 9.95103 1.19325 9.70665C1.33066 8.9888 1.7658 8.50769 2.41469 8.24041C2.72768 8.11058 3.07884 8.20986 3.37656 8.3855C3.49107 8.45423 3.55214 8.57642 3.56741 8.71388C3.63612 9.18736 3.52924 9.63029 3.21625 9.99685Z" fill="#FEDA2F"/>
</svg>
