<svg width="42" height="46" viewBox="0 0 42 46" fill="none" xmlns="http://www.w3.org/2000/svg">
<path d="M25.6017 35.1562C25.6017 40.8382 20.0944 45.4444 13.3008 45.4444C6.50728 45.4444 1 40.8382 1 35.1562C1 29.4741 6.50728 24.8679 13.3008 24.8679C20.0944 24.8679 25.6017 29.4741 25.6017 35.1562Z" fill="#FEDA2F"/>
<path d="M25.6017 35.1562L25.6051 2.55566C25.6051 1.98696 25.9058 1.46403 26.3884 1.19034C26.874 0.918218 27.462 0.939549 27.9254 1.24359C30.7044 3.07096 33.2958 5.18276 35.6288 7.51936C37.2059 9.09905 38.9625 11.0314 40.031 13.394C42.0648 17.8864 40.5335 23.9677 38.7672 29.3253M25.6017 35.1562C25.6017 40.8382 20.0944 45.4444 13.3008 45.4444C6.50728 45.4444 1 40.8382 1 35.1562C1 29.4741 6.50728 24.8679 13.3008 24.8679C20.0944 24.8679 25.6017 29.4741 25.6017 35.1562Z" stroke="black"/>
<path d="M13.219 40.7778H14.467V29.4978H13.539L10.803 30.4418L11.107 31.4658L13.219 30.8098V40.7778Z" fill="black"/>
</svg>
