<svg width="220" height="161" viewBox="0 0 220 161" fill="none" xmlns="http://www.w3.org/2000/svg">
<path d="M90.6283 132.752C90.1804 128.504 82.6415 143.37 71.6316 145.419C67.3396 146.202 64.8764 142.811 64.7271 139.048C64.5405 132.342 68.4966 129.51 65.2123 124.443C63.8687 122.357 60.1366 122.319 57.7106 122.618C53.0081 123.214 46.7381 128.728 43.7897 133.05C42.9313 126.79 29.197 149.443 11.6558 151.306C7.88635 151.716 4.63937 148.437 4.93795 144.898C5.34848 139.421 8.70742 128.951 13.8578 127.126C14.9028 126.753 14.9028 127.014 16.4703 131.373C19.0828 138.527 24.8303 129.846 16.5076 121.91C12.4396 118.035 -2.82494 136.515 0.459357 148.884C2.84794 158.161 13.9324 157.491 22.0312 152.647C34.534 145.158 43.2299 133.46 41.1772 137.372C34.3847 150.263 39.4604 162.372 53.3067 151.604C59.8007 146.537 60.2485 143.817 60.8457 145.382C63.3089 151.641 70.1387 152.275 75.8863 149.033C81.0739 146.127 85.254 141.992 89.1354 137.595C90.3297 136.291 90.7776 134.54 90.6283 132.752ZM61.1069 130.777C61.0696 146.798 40.1695 156.783 43.2672 145.457C45.4692 137.446 51.8138 126.865 59.614 127.237C61.1069 127.349 61.1069 129.287 61.1069 130.777Z" fill="#FEDA2F"/>
<path d="M150.417 31.1123C150.007 25.7472 149.484 19.5996 140.229 10.4715C131.645 1.97668 122.128 1.52959 115.97 0.486367C103.392 -0.258789 79.9917 -3.87279 57.86 29.3612C48.3057 43.6682 40.2442 64.2345 41.6997 79.3984C41.8117 80.7024 41.5878 80.8515 39.4978 83.0124C-4.09383 128.355 10.5736 72.8783 9.7898 68.1093C9.30462 65.0542 2.77334 67.8112 1.72834 72.7293C-4.9149 103.691 9.49122 127.647 42.2596 86.4774C42.8194 85.7695 42.7447 85.8813 43.006 86.7009C47.1114 99.0333 57.4868 112.148 69.9522 112.819C83.9478 113.564 97.3089 110.807 108.841 102.834C132.279 86.6637 152.694 60.9931 150.417 31.1123ZM135.974 37.1108C134.556 74.8157 102.497 100.002 76.894 100.486C65.6229 100.673 49.3507 88.8992 57.3002 60.6577C63.9807 36.999 87.3067 9.01841 103.28 9.98711C110.558 8.08696 136.198 14.3835 136.086 30.8142C136.086 32.9379 136.049 35.0244 135.974 37.1108Z" fill="#FEDA2F"/>
<path d="M179.454 126.865C179.118 131.485 166.391 132.23 156.949 133.199C156.09 133.273 155.68 133.72 155.493 134.615C153.59 143.296 149.522 154.1 153.403 157.006C154.933 158.161 154.821 159.279 153.105 160.211C150.193 161.813 147.917 160.956 146.723 157.826C144.334 151.567 151.686 135.434 149.149 134.503C148.327 134.242 147.544 134.316 146.76 134.503C146.237 134.428 145.939 134.689 145.715 135.136C141.945 141.731 131.719 151.865 124.255 152.014C112.424 152.237 117.686 132.305 111.715 132.528C105.706 132.752 92.1212 163.079 90.1431 147.133C89.6579 143.184 90.8149 132.752 93.2408 126.679C94.3231 124.033 95.2188 124.071 96.1892 123.884C99.9214 124.071 97.1596 130.479 95.816 136.477C92.9049 149.555 98.951 138.266 105.669 130.851C112.088 123.81 117.761 125.635 119.179 131.075C121.157 138.452 119.291 147.282 126.382 146.388C131.048 145.792 137.318 139.719 140.565 136.291C142.617 134.13 141.684 134.987 139.818 134.316C138.475 133.273 137.877 130.702 139.37 130.144C140.751 129.622 141.945 130.144 148.663 129.249C150.343 129.436 150.977 129.026 151.313 127.498C155.12 116.358 153.702 106.857 158.964 107.528C159.487 107.454 159.897 107.603 160.009 108.199C162.808 112.372 153.329 127.983 158.143 128.057C173.706 128.467 179.678 123.549 179.454 126.865Z" fill="#FEDA2F"/>
<path d="M219.126 127.536C209.684 131.373 202.966 128.616 202.892 128.616C199.533 127.796 196.398 127.051 194.382 124.033C193.524 122.767 191.359 121.388 188.821 121.947C183.186 123.139 178.67 129.287 175.796 133.31C158.18 157.863 189.792 163.191 198.786 140.948C201.249 134.838 198.674 131.895 198.935 131.597C199.085 131.41 199.309 131.671 199.421 131.857C206.437 135.62 219.313 134.801 219.985 128.243C220.059 127.349 219.873 127.237 219.126 127.536ZM193.71 141.358C187.067 151.939 176.169 151.939 176.244 146.09C176.281 142.55 177.364 139.383 179.454 136.515C180.76 134.316 185.089 129.026 185.276 129.026C185.313 129.026 186.918 126.865 188.336 127.796C190.128 128.467 188.784 128.355 191.882 129.473C194.83 128.989 196.547 136.813 193.71 141.358Z" fill="#FEDA2F"/>
<path d="M15.7239 48.7725C14.6042 50.0765 13.1114 50.4491 11.8051 50.3373C9.97637 50.3001 8.52083 50.0765 7.13993 49.5922C5.94564 49.1451 5.60975 48.549 5.83368 47.3567C6.50547 43.8545 8.6328 41.5072 11.8051 40.2032C13.3353 39.5698 15.0521 40.0542 16.5076 40.9111C17.0675 41.2464 17.366 41.8425 17.4407 42.5132C17.7766 44.8232 17.2541 46.9841 15.7239 48.7725Z" fill="#FEDA2F"/>
</svg>
