<svg width="327" height="100" viewBox="0 0 327 100" fill="none" xmlns="http://www.w3.org/2000/svg">
<path d="M132.686 27.5487C132.323 22.7981 131.862 17.3547 123.69 9.27207C116.11 1.75027 107.707 1.35439 102.27 0.430659C91.1641 -0.229147 70.5021 -3.42921 50.9605 25.9982C42.5243 38.6664 35.4063 56.8771 36.6915 70.3042C36.7903 71.4588 36.5926 71.5908 34.7472 73.5042C-3.74289 113.653 9.20797 64.5309 8.51594 60.3081C8.08754 57.6029 2.32062 60.0442 1.39791 64.3989C-4.46787 91.8139 8.25231 113.027 37.1858 76.5723C37.6801 75.9455 37.6142 76.0445 37.8448 76.7703C41.4698 87.6901 50.6309 99.3027 61.6375 99.8965C73.9952 100.556 85.7927 98.115 95.9754 91.0551C116.67 76.7373 134.696 54.0069 132.686 27.5487ZM119.933 32.8601C118.681 66.2464 90.3733 88.5478 67.7669 88.9767C57.8149 89.1416 43.447 78.7167 50.4662 53.71C56.3649 32.7612 76.961 7.98544 91.0653 8.84319C97.4913 7.16068 120.131 12.736 120.032 27.2848C120.032 29.1652 119.999 31.0127 119.933 32.8601Z" fill="#FEDA2F"/>
<path d="M13.7556 43.1861C12.767 44.3408 11.4488 44.6707 10.2954 44.5717C8.68068 44.5387 7.39548 44.3408 6.17619 43.9119C5.12166 43.516 4.82508 42.9882 5.0228 41.9325C5.61597 38.8314 7.49434 36.753 10.2954 35.5983C11.6465 35.0375 13.1624 35.4664 14.4476 36.2252C14.9419 36.5221 15.2055 37.0499 15.2714 37.6437C15.568 39.6891 15.1067 41.6026 13.7556 43.1861Z" fill="#FEDA2F"/>
<path d="M212.769 74.7703C212.373 71.0094 205.717 84.1725 195.995 85.987C192.205 86.6798 190.031 83.6777 189.899 80.3457C189.734 74.4074 193.227 71.9002 190.327 67.4135C189.141 65.566 185.845 65.533 183.703 65.7969C179.551 66.3248 174.015 71.2074 171.412 75.0342C170.654 69.4919 158.527 89.5499 143.038 91.1995C139.71 91.5624 136.843 88.6592 137.107 85.5251C137.469 80.6756 140.435 71.4053 144.983 69.7888C145.905 69.4589 145.905 69.6898 147.289 73.5497C149.596 79.8838 154.671 72.1971 147.322 65.1701C143.73 61.7391 130.252 78.1023 133.152 89.0551C135.261 97.2697 145.049 96.6759 152.2 92.3871C163.239 85.7561 170.917 75.3971 169.105 78.8611C163.107 90.2757 167.589 100.998 179.815 91.4634C185.549 86.9767 185.944 84.5684 186.471 85.954C188.646 91.4964 194.677 92.0572 199.752 89.1871C204.332 86.6138 208.023 82.9519 211.45 79.0591C212.505 77.9044 212.9 76.3538 212.769 74.7703ZM186.702 73.0218C186.669 87.2076 168.215 96.0491 170.95 86.02C172.895 78.9271 178.497 69.5578 185.384 69.8877C186.702 69.9867 186.702 71.7022 186.702 73.0218Z" fill="#FEDA2F"/>
<path d="M291.199 69.5578C290.902 73.6486 279.665 74.3084 271.328 75.1662C270.57 75.2322 270.207 75.6281 270.042 76.4198C268.362 84.1066 264.77 93.6737 268.197 96.247C269.548 97.2697 269.449 98.2594 267.933 99.0842C265.363 100.503 263.353 99.744 262.298 96.9728C260.189 91.4304 266.681 77.1456 264.44 76.3208C263.715 76.0899 263.023 76.1559 262.331 76.3208C261.87 76.2549 261.606 76.4858 261.409 76.8817C258.08 82.721 249.051 91.6943 242.46 91.8263C232.014 92.0242 236.66 74.3744 231.388 74.5724C226.082 74.7703 214.087 101.624 212.34 87.5046C211.912 84.0076 212.933 74.7703 215.075 69.3929C216.031 67.0506 216.822 67.0836 217.679 66.9186C220.974 67.0836 218.536 72.7579 217.349 78.0693C214.779 89.6489 220.117 79.6529 226.049 73.0878C231.717 66.8526 236.726 68.4692 237.978 73.2857C239.725 79.8178 238.077 87.6365 244.338 86.8448C248.458 86.3169 253.994 80.9395 256.861 77.9044C258.673 75.991 257.849 76.7497 256.202 76.1559C255.015 75.2322 254.488 72.9558 255.806 72.461C257.026 71.9991 258.08 72.461 264.012 71.6692C265.495 71.8342 266.055 71.4713 266.352 70.1187C269.713 60.2546 268.461 51.842 273.107 52.4359C273.568 52.3699 273.931 52.5019 274.03 53.0297C276.501 56.7246 268.131 70.5475 272.382 70.6135C286.124 70.9764 291.396 66.6217 291.199 69.5578Z" fill="#FEDA2F"/>
<path d="M326.229 70.1517C317.891 73.5497 311.96 71.1084 311.894 71.1084C308.928 70.3826 306.16 69.7228 304.38 67.0506C303.622 65.9289 301.711 64.7083 299.47 65.2031C294.494 66.2588 290.507 71.7022 287.969 75.2652C272.415 97.0058 300.327 101.723 308.269 82.0282C310.444 76.6178 308.17 74.0115 308.401 73.7476C308.532 73.5826 308.73 73.8136 308.829 73.9785C315.024 77.3106 326.393 76.5848 326.987 70.7785C327.052 69.9867 326.888 69.8877 326.229 70.1517ZM303.787 82.3911C297.921 91.7603 288.299 91.7603 288.365 86.5808C288.398 83.4468 289.353 80.6426 291.199 78.1023C292.352 76.1559 296.175 71.4713 296.34 71.4713C296.372 71.4713 297.789 69.5578 299.042 70.3826C300.624 70.9764 299.437 70.8775 302.172 71.8672C304.776 71.4383 306.292 78.3662 303.787 82.3911Z" fill="#FEDA2F"/>
</svg>
