<svg width="333" height="217" viewBox="0 0 333 217" fill="none" xmlns="http://www.w3.org/2000/svg">
<path d="M134.125 94.6319H167.875C175 94.6319 181 100.886 181 108.313V143.492H179.125H171.625M134.125 94.6319C146.5 91.8958 154.563 87.4007 159.063 81.342C163.563 75.088 164.687 67.0749 162.062 56.7166C159.25 44.4039 147.25 36 132.813 36C124.563 36 104.313 39.127 91 68.0521C77.5 39.3225 57.4375 36 49 36C34.75 36 22.75 44.5993 19.75 56.7166C17.5 65.9023 18.625 73.7199 23.3125 79.9739C28.375 86.8143 37.1875 91.7003 50.125 94.8274M134.125 94.6319L91 98.5407M50.125 94.8274H14.125C7 94.8274 1 101.081 1 108.508V143.687H6.625H10.375M50.125 94.8274L91 98.5407M10.375 143.687V208.182C10.375 211.896 14.3125 216 17.875 216H91M10.375 143.687L14.125 143.492H89.125H167.875H171.625M171.625 143.492V208.182C171.625 211.896 167.688 216 164.125 216H91M91 98.5407V216" stroke="white" stroke-width="2"/>
<path d="M332 42.8969C332 49.0186 327.065 54 321.001 54C314.935 54 310 49.0186 310 42.8969C310 36.775 314.935 31.7955 321.001 31.7955C323.72 31.7955 326.208 32.8024 328.13 34.4592C330.291 36.322 332 39.0716 332 42.8969ZM332 42.8969V0" stroke="white"/>
<path d="M260 39.3782C260 44.0705 256.227 47.8872 251.59 47.8872C246.953 47.8872 243.181 44.0705 243.181 39.3782C243.181 34.6858 246.953 30.8691 251.59 30.8691C253.67 30.8691 255.572 31.641 257.041 32.9108C258.511 34.1806 260 36.4484 260 39.3782ZM260 39.3782V6.49686C260 5.66955 259.338 5 258.521 5C258.469 5 258.425 5.02455 258.375 5.02979C258.256 5.02754 258.139 5.01167 258.018 5.03952L231.447 11.3236C231.405 11.3335 231.374 11.3626 231.334 11.3759C231.235 11.4085 231.147 11.4516 231.059 11.5031C230.978 11.5498 230.903 11.5967 230.833 11.657C230.761 11.7196 230.702 11.7895 230.642 11.8652C230.583 11.941 230.529 12.0147 230.486 12.1004C230.443 12.1828 230.415 12.2682 230.388 12.3587C230.359 12.4569 230.338 12.553 230.329 12.6571C230.325 12.6999 230.304 12.7368 230.304 12.781V39.1936V45.7934M230.304 45.7934C230.304 45.7788 230.304 45.7642 230.304 45.7496C230.304 41.2023 226.648 37.5012 222.153 37.5012C217.658 37.5012 214 41.2023 214 45.7496C214 50.2989 217.658 54 222.153 54C226.633 54 230.281 50.3226 230.304 45.7934Z" stroke="white"/>
<path d="M285.931 127.79C288.359 120.453 290.464 112.125 287.668 105.973C286.2 102.737 283.785 100.091 281.617 97.928C278.411 94.7281 274.849 91.8361 271.029 89.3336C270.392 88.9172 269.584 88.888 268.917 89.2607C268.253 89.6355 267.84 90.3516 267.84 91.1304V138.337M267.84 138.337C267.84 138.311 267.841 138.286 267.841 138.26C267.841 131.789 262.716 126.523 256.42 126.523C250.123 126.523 245 131.789 245 138.26C245 144.733 250.123 150 256.42 150C262.691 150 267.8 144.775 267.84 138.337Z" stroke="white"/>
</svg>
