<svg width="220" height="271" viewBox="0 0 220 271" fill="none" xmlns="http://www.w3.org/2000/svg">
<path d="M0 38.3984H170M0 96.3984H106.5M220 96.3984H164M0 154.398H58.5M220 154.398H147M0 212.398H47.5M220 212.398H109.5M0 270.398H220" stroke="black"/>
<path d="M63 241.398C63 252.444 52.2548 261.398 39 261.398C25.7452 261.398 15 252.444 15 241.398C15 230.353 25.7452 221.398 39 221.398C52.2548 221.398 63 230.353 63 241.398Z" fill="#FEDA2F"/>
<path d="M63 241.398L63.0067 178.024C63.0067 176.919 63.5933 175.902 64.5349 175.37C65.4824 174.841 66.6296 174.882 67.5338 175.474C72.9557 179.026 78.0119 183.131 82.5638 187.673C85.6407 190.744 89.068 194.501 91.1527 199.093C95.121 207.827 92.1332 219.648 88.687 230.063M63 241.398C63 252.444 52.2548 261.398 39 261.398C25.7452 261.398 15 252.444 15 241.398C15 230.353 25.7452 221.398 39 221.398C52.2548 221.398 63 230.353 63 241.398Z" stroke="black"/>
<path d="M126 155C126 166.046 115.255 175 102 175C88.7452 175 78 166.046 78 155C78 143.954 88.7452 135 102 135C115.255 135 126 143.954 126 155Z" fill="#FEDA2F"/>
<path d="M126 155L126.007 91.6257C126.007 90.5202 126.593 89.5036 127.535 88.9716C128.482 88.4426 129.63 88.484 130.534 89.0751C135.956 92.6274 141.012 96.7327 145.564 101.275C148.641 104.346 152.068 108.102 154.153 112.695C158.121 121.428 155.133 133.25 151.687 143.665M126 155C126 166.046 115.255 175 102 175C88.7452 175 78 166.046 78 155C78 143.954 88.7452 135 102 135C115.255 135 126 143.954 126 155Z" stroke="black"/>
<path d="M189 67.3984L189.007 4.02415C189.007 2.91862 189.593 1.90206 190.535 1.37002C191.482 0.841019 192.63 0.882485 193.534 1.47353C198.956 5.02588 204.012 9.13114 208.564 13.6734C211.641 16.7443 215.068 20.5006 217.153 25.0934C221.121 33.8266 218.133 45.6485 214.687 56.0634M189 67.3984C189 78.4441 178.255 87.3984 165 87.3984C151.745 87.3984 141 78.4441 141 67.3984C141 56.3527 151.745 47.3984 165 47.3984C178.255 47.3984 189 56.3527 189 67.3984Z" stroke="black"/>
<path d="M39.4952 250.398H41.3672V233.478H39.9752L35.8712 234.894L36.3272 236.43L39.4952 235.446V250.398Z" fill="black"/>
<path d="M165.605 76.6864C168.725 76.6864 171.221 74.6224 171.221 71.6224C171.221 68.5024 168.605 67.0864 165.677 66.8464L170.957 60.9904V59.5984H160.229V61.3024H168.437L163.133 67.2784L163.517 68.4064H164.597C167.357 68.4064 169.301 69.5584 169.301 71.6464C169.301 73.6624 167.669 74.9584 165.629 74.9584C163.565 74.9584 162.005 74.0464 160.709 72.4624L159.341 73.6864C160.709 75.4624 162.797 76.6864 165.605 76.6864Z" fill="black"/>
<path d="M96.4684 163.398H108.204V161.67H99.3004L103.788 157.686C106.716 155.094 108.036 153.606 108.036 151.158C108.036 148.374 105.852 146.358 102.828 146.358C99.8764 146.358 98.2924 147.678 96.7804 149.934L98.1724 150.942C99.5164 149.07 100.764 148.062 102.684 148.062C104.508 148.062 106.068 149.31 106.068 151.278C106.068 152.958 105.156 154.278 102.564 156.558L96.4684 161.934V163.398Z" fill="black"/>
</svg>
