<svg width="163" height="114" viewBox="0 0 163 114" fill="none" xmlns="http://www.w3.org/2000/svg">
<path d="M67.5625 52.316H84.4375C88 52.316 91 55.443 91 59.1564V76.7459H90.0625H86.3125M67.5625 52.316C73.75 50.9479 77.7813 48.7003 80.0313 45.671C82.2813 42.544 82.8437 38.5375 81.5312 33.3583C80.125 27.202 74.125 23 66.9063 23C62.7813 23 52.6563 24.5635 46 39.0261C39.25 24.6612 29.2187 23 25 23C17.875 23 11.875 27.2997 10.375 33.3583C9.25 37.9511 9.8125 41.8599 12.1562 44.987C14.6875 48.4072 19.0937 50.8502 25.5625 52.4137M67.5625 52.316L46 54.2704M25.5625 52.4137H7.5625C4 52.4137 1 55.5407 1 59.2541V76.8436H3.8125H5.6875M25.5625 52.4137L46 54.2704M5.6875 76.8436V109.091C5.6875 110.948 7.65625 113 9.4375 113H46M5.6875 76.8436L7.5625 76.7459H45.0625H84.4375H86.3125M86.3125 76.7459V109.091C86.3125 110.948 84.3438 113 82.5625 113H46M46 54.2704V113" stroke="black" stroke-width="2"/>
<path d="M162 23.0372C162 26.3248 159.308 29 156 29C152.692 29 150 26.3248 150 23.0372C150 19.7495 152.692 17.0754 156 17.0754C157.484 17.0754 158.841 17.6161 159.889 18.5059C161.068 19.5062 162 20.9829 162 23.0372ZM162 23.0372V0" stroke="black"/>
<path d="M123 21.2415C123 23.7313 120.95 25.7565 118.429 25.7565C115.909 25.7565 113.859 23.7313 113.859 21.2415C113.859 18.7516 115.909 16.7265 118.429 16.7265C119.56 16.7265 120.593 17.1361 121.392 17.8098C122.191 18.4836 123 19.6869 123 21.2415ZM123 21.2415V3.79425C123 3.35527 122.64 3 122.196 3C122.168 3 122.144 3.01303 122.117 3.01581C122.052 3.01461 121.988 3.00619 121.923 3.02097L107.482 6.35541C107.459 6.36065 107.442 6.37606 107.421 6.38312C107.367 6.40044 107.319 6.42331 107.271 6.45064C107.227 6.47542 107.186 6.50028 107.149 6.53229C107.109 6.56548 107.077 6.60258 107.045 6.64277C107.013 6.68295 106.983 6.72211 106.96 6.76754C106.936 6.81131 106.921 6.85658 106.907 6.90463C106.891 6.95674 106.879 7.00773 106.874 7.06293C106.872 7.08564 106.861 7.10526 106.861 7.12869V21.1435V24.6455M106.861 24.6455C106.861 24.6377 106.861 24.63 106.861 24.6222C106.861 22.2094 104.874 20.2455 102.431 20.2455C99.9879 20.2455 98 22.2094 98 24.6222C98 27.0362 99.9879 29 102.431 29C104.866 29 106.848 27.0487 106.861 24.6455Z" stroke="black"/>
<path d="M137.326 68.9848C138.65 65.0157 139.798 60.5103 138.274 57.1821C137.472 55.4317 136.156 54.0002 134.973 52.8299C133.224 51.0988 131.281 49.5343 129.198 48.1805C128.85 47.9552 128.41 47.9394 128.046 48.141C127.684 48.3438 127.458 48.7312 127.458 49.1525V74.6904M127.458 74.6904C127.458 74.6766 127.458 74.6627 127.458 74.6488C127.458 71.1483 124.663 68.2992 121.229 68.2992C117.794 68.2992 115 71.1483 115 74.6488C115 78.1509 117.794 81 121.229 81C124.65 81 127.436 78.1734 127.458 74.6904Z" stroke="black"/>
</svg>
