<svg width="21" height="20" viewBox="0 0 21 20" fill="none" xmlns="http://www.w3.org/2000/svg">
<path opacity="0.7" fill-rule="evenodd" clip-rule="evenodd" d="M15 20H6C4.4087 20 2.88257 19.4064 1.75735 18.3499C0.632136 17.2934 0 15.8604 0 14.3662V5.6338C0 4.13963 0.632136 2.70665 1.75735 1.6501C2.88257 0.59356 4.4087 0 6 0H15C16.5913 0 18.1174 0.59356 19.2426 1.6501C20.3679 2.70665 21 4.13963 21 5.6338V14.3662C21 15.106 20.8448 15.8386 20.5433 16.5222C20.2418 17.2057 19.7998 17.8268 19.2426 18.3499C18.6855 18.873 18.0241 19.288 17.2961 19.5712C16.5682 19.8543 15.7879 20 15 20ZM19.05 5.21127C19.05 4.27741 18.6549 3.38179 17.9516 2.72146C17.2484 2.06112 16.2946 1.69014 15.3 1.69014H5.55C4.55544 1.69014 3.60162 2.06112 2.89836 2.72146C2.1951 3.38179 1.8 4.27741 1.8 5.21127V14.3662C1.8 15.3001 2.1951 16.1957 2.89836 16.856C3.60162 17.5163 4.55544 17.8873 5.55 17.8873H15.3C16.2946 17.8873 17.2484 17.5163 17.9516 16.856C18.6549 16.1957 19.05 15.3001 19.05 14.3662V5.21127ZM16.05 5.77465C15.783 5.77465 15.522 5.7003 15.3 5.56102C15.078 5.42173 14.9049 5.22376 14.8028 4.99213C14.7006 4.76051 14.6739 4.50564 14.7259 4.25974C14.778 4.01385 14.9066 3.78799 15.0954 3.61071C15.2842 3.43343 15.5247 3.3127 15.7866 3.26379C16.0485 3.21488 16.3199 3.23999 16.5666 3.33593C16.8133 3.43187 17.0242 3.59434 17.1725 3.8028C17.3208 4.01125 17.4 4.25633 17.4 4.50704C17.4 4.84323 17.2578 5.16565 17.0046 5.40337C16.7514 5.6411 16.408 5.77465 16.05 5.77465ZM10.425 15.0704C9.34215 15.0704 8.28361 14.7689 7.38325 14.204C6.48289 13.6392 5.78116 12.8363 5.36677 11.8969C4.95238 10.9575 4.84394 9.92387 5.05519 8.92665C5.26645 7.92942 5.78789 7.01341 6.55358 6.29445C7.31928 5.57549 8.29483 5.08587 9.35687 4.88751C10.4189 4.68915 11.5198 4.79096 12.5202 5.18006C13.5206 5.56915 14.3757 6.22807 14.9773 7.07348C15.5789 7.91888 15.9 8.91282 15.9 9.92958C15.9 11.293 15.3232 12.6006 14.2964 13.5647C13.2697 14.5288 11.8771 15.0704 10.425 15.0704ZM10.425 6.61972C9.72782 6.61972 9.0463 6.81384 8.46661 7.17753C7.88693 7.54122 7.43512 8.05815 7.16832 8.66295C6.90152 9.26775 6.83172 9.93325 6.96773 10.5753C7.10374 11.2174 7.43946 11.8071 7.93244 12.27C8.42542 12.7329 9.05353 13.0481 9.73731 13.1758C10.4211 13.3036 11.1298 13.238 11.774 12.9875C12.4181 12.737 12.9686 12.3127 13.3559 11.7684C13.7433 11.2241 13.95 10.5842 13.95 9.92958C13.95 9.05175 13.5786 8.20987 12.9176 7.58915C12.2565 6.96843 11.3599 6.61972 10.425 6.61972Z" fill="white"/>
</svg>
