<svg width="11" height="13" viewBox="0 0 11 13" fill="none" xmlns="http://www.w3.org/2000/svg">
<path opacity="0.7" fill-rule="evenodd" clip-rule="evenodd" d="M9.84968 8.18729C10.1891 7.82527 10.4589 7.41405 10.6476 6.97089C10.9685 6.17113 11.0724 5.31319 10.9504 4.46945C10.8285 3.6257 10.4843 2.82089 9.94699 2.12291C9.45189 1.46844 8.78822 0.933104 8.01337 0.563207C7.23853 0.193311 6.37586 0 5.5 0C4.62414 0 3.76147 0.193311 2.98663 0.563207C2.21178 0.933104 1.54811 1.46844 1.05301 2.12291C0.515658 2.82089 0.171496 3.6257 0.0495595 4.46945C-0.072377 5.31319 0.0314885 6.17113 0.352395 6.97089C0.541107 7.41405 0.810854 7.82527 1.15032 8.18729L5.49027 13L9.84968 8.18729ZM8.3437 3.37408C8.72496 3.90484 8.93152 4.53042 8.93737 5.17198C8.94129 5.60113 8.85526 6.02676 8.68426 6.42431C8.51327 6.82186 8.26068 7.18345 7.94109 7.48821C7.6215 7.79298 7.24123 8.03488 6.82223 8.19996C6.40323 8.36503 5.9538 8.45002 5.49987 8.45C4.82127 8.44998 4.15785 8.26005 3.59322 7.90416C3.02858 7.54827 2.588 7.04234 2.32697 6.45011C2.06595 5.85788 1.99616 5.20585 2.12642 4.57619C2.25667 3.94653 2.58113 3.3674 3.05891 2.91179C3.5367 2.45617 4.14642 2.14445 4.81127 2.0159C5.47612 1.88735 6.16633 1.94773 6.79494 2.18943C7.42356 2.43112 7.96244 2.84332 8.3437 3.37408Z" fill="black"/>
</svg>
