<svg width="262" height="80" viewBox="0 0 262 80" fill="none" xmlns="http://www.w3.org/2000/svg">
<path d="M106.311 22.039C106.021 18.2385 105.651 13.8838 99.103 7.41765C93.0302 1.40022 86.2973 1.08351 81.9408 0.344527C73.0428 -0.183318 56.4879 -2.74337 40.8307 20.7985C34.0714 30.9332 28.3683 45.5017 29.3981 56.2433C29.4773 57.167 29.3188 57.2726 27.8403 58.8034C-2.99889 90.9227 7.37764 51.6247 6.82317 48.2465C6.47992 46.0823 1.85933 48.0353 1.12004 51.5191C-3.57976 73.4511 6.61194 90.4213 29.7941 61.2578C30.1902 60.7564 30.1374 60.8356 30.3222 61.4162C33.2265 70.152 40.5667 79.4421 49.3854 79.9172C59.2867 80.445 68.7391 78.492 76.8977 72.8441C93.4791 61.3898 107.922 43.2056 106.311 22.039ZM96.093 26.2881C95.0897 52.9971 72.4092 70.8382 54.2964 71.1813C46.3226 71.3133 34.8107 62.9734 40.4347 42.968C45.1609 26.2089 61.663 6.38835 72.9636 7.07455C78.1123 5.72855 96.2514 10.1888 96.1722 21.8278C96.1722 23.3322 96.1458 24.8102 96.093 26.2881Z" fill="white"/>
<path d="M11.0213 34.5489C10.2292 35.4726 9.17304 35.7365 8.24892 35.6574C6.95516 35.631 5.92543 35.4726 4.9485 35.1295C4.1036 34.8128 3.86597 34.3905 4.02439 33.546C4.49965 31.0651 6.00464 29.4024 8.24892 28.4787C9.33146 28.03 10.546 28.3731 11.5757 28.9801C11.9718 29.2177 12.183 29.6399 12.2358 30.115C12.4735 31.7513 12.1038 33.2821 11.0213 34.5489Z" fill="white"/>
<path d="M170.475 59.8162C170.158 56.8075 164.825 67.338 157.036 68.7896C153.999 69.3438 152.257 66.9421 152.151 64.2765C152.019 59.5259 154.818 57.5201 152.495 53.9308C151.544 52.4528 148.904 52.4264 147.187 52.6376C143.861 53.0598 139.425 56.9659 137.339 60.0274C136.732 55.5935 127.015 71.64 114.606 72.9596C111.939 73.2499 109.642 70.9274 109.853 68.4201C110.143 64.5405 112.52 57.1242 116.163 55.831C116.903 55.5671 116.903 55.7518 118.012 58.8397C119.86 63.907 123.926 57.7576 118.038 52.1361C115.16 49.3913 104.361 62.4819 106.685 71.2441C108.374 77.8157 116.216 77.3407 121.946 73.9097C130.791 68.6049 136.943 60.3177 135.491 63.0889C130.685 72.2206 134.276 80.798 144.072 73.1707C148.666 69.5814 148.983 67.6547 149.405 68.7632C151.148 73.1971 155.98 73.6458 160.046 71.3497C163.716 69.2911 166.673 66.3615 169.419 63.2472C170.264 62.3235 170.581 61.0831 170.475 59.8162ZM149.59 58.4175C149.564 69.7661 134.778 76.8392 136.969 68.816C138.527 63.1417 143.016 55.6463 148.534 55.9102C149.59 55.9894 149.59 57.3618 149.59 58.4175Z" fill="white"/>
<path d="M233.315 55.6463C233.078 58.9189 224.074 59.4468 217.394 60.133C216.787 60.1857 216.496 60.5024 216.364 61.1359C215.018 67.2852 212.14 74.939 214.886 76.9976C215.968 77.8157 215.889 78.6075 214.674 79.2673C212.615 80.4022 211.004 79.7952 210.159 77.5782C208.47 73.1443 213.671 61.7165 211.876 61.0567C211.295 60.8719 210.74 60.9247 210.186 61.0567C209.816 61.0039 209.605 61.1886 209.447 61.5053C206.78 66.1768 199.545 73.3555 194.265 73.461C185.895 73.6194 189.618 59.4995 185.393 59.6579C181.142 59.8162 171.531 81.2995 170.132 70.0036C169.789 67.2061 170.607 59.8162 172.323 55.5143C173.089 53.6405 173.723 53.6669 174.409 53.5349C177.05 53.6669 175.096 58.2063 174.145 62.4555C172.086 71.7191 176.363 63.7223 181.116 58.4702C185.657 53.4821 189.67 54.7753 190.674 58.6286C192.073 63.8543 190.753 70.1092 195.77 69.4758C199.07 69.0535 203.506 64.7516 205.803 62.3235C207.255 60.7928 206.595 61.3998 205.275 60.9247C204.324 60.1857 203.902 58.3647 204.958 57.9688C205.935 57.5993 206.78 57.9688 211.532 57.3354C212.721 57.4673 213.169 57.177 213.407 56.0949C216.1 48.2037 215.097 41.4736 218.82 41.9487C219.189 41.8959 219.48 42.0015 219.559 42.4238C221.539 45.3797 214.833 56.438 218.239 56.4908C229.249 56.7811 233.474 53.2974 233.315 55.6463Z" fill="white"/>
<path d="M261.382 56.1213C254.702 58.8397 249.949 56.8867 249.897 56.8867C247.52 56.3061 245.302 55.7782 243.877 53.6405C243.269 52.7431 241.738 51.7666 239.942 52.1625C235.956 53.007 232.761 57.3618 230.728 60.2121C218.265 77.6046 240.629 81.3787 246.992 65.6225C248.735 61.2942 246.913 59.2092 247.098 58.9981C247.203 58.8661 247.362 59.0509 247.441 59.1828C252.405 61.8484 261.514 61.2678 261.989 56.6228C262.042 55.9894 261.91 55.9102 261.382 56.1213ZM243.401 65.9128C238.701 73.4082 230.992 73.4082 231.045 69.2647C231.071 66.7574 231.837 64.5141 233.315 62.4819C234.239 60.9247 237.302 57.177 237.434 57.177C237.461 57.177 238.596 55.6463 239.599 56.3061C240.867 56.7811 239.916 56.702 242.108 57.4937C244.193 57.1506 245.408 62.693 243.401 65.9128Z" fill="white"/>
</svg>
